<svg viewBox="0 0 580 580" xmlns="http://www.w3.org/2000/svg"><path fill="currentColor" d="m220 511.32c-14.884-1.5153-35.916-5.9193-48.933-10.247-5.9634-1.9824-21.329-8.0153-21.93-8.6099-0.2584-0.25585 8.0192-19.091 9.301-21.164 0.0669-0.10818 4.1581 1.4245 9.0916 3.4059 87.49 35.138 188.54 1.1109 236.42-79.609 2.8057-4.7303 5.4591-9.172 5.8965-9.8704 0.74465-1.189 23.654-0.0626 24.943 1.2263 0.62864 0.62863-9.3962 18.917-15.646 28.543-42.235 65.053-122.93 104.08-199.14 96.324zm-107.5-24.244c-23.396-10.976-15.778-46.079 10-46.079 25.874 0 33.424 34.755 10 46.031-5.2894 2.546-14.628 2.5688-20 0.0488zm-30.263-42.511c-107.65-117.79-59.143-305.15 91.408-353.07l7.1447-2.2744 2.677 9.6401c1.4724 5.3021 2.8815 10.369 3.1314 11.26 0.32038 1.1423-0.38004 1.7867-2.3758 2.1858-15.141 3.0282-45.295 18.756-63.722 33.237-84.937 66.746-98.05 195-28.086 274.72 3.3475 3.8144 7.3936 8.4978 8.9913 10.408l2.9048 3.4726-7.8814 7.9279c-9.3666 9.4218-8.0706 9.1938-14.192 2.4965zm144.76-25.515c-46.376-4.8044-86.166-35.279-102.85-78.771-4.2648-11.119-4.6711-10.384 7.5097-13.571 11.595-3.0338 11.518-3.0499 13.356 2.7891 15.623 49.64 75.003 78.679 125.85 61.546 3.5017-1.18 6.4853-2.0104 6.6303-1.8454 0.62584 0.71226 8.5589 21.072 8.295 21.289-6.4092 5.262-41.428 10.363-58.792 8.5646zm69.03-19.333c-3.1643-1.6012-7.03-7.3204-7.03-10.401 0-10.805 12.251-16.428 20.332-9.3332 10.399 9.1306-0.95861 25.98-13.302 19.734zm68.47-42.105c-54.238-10.742-54.001-94.278 0.29922-105.52 17.353-3.5923 36.25 0.76122 48.5 11.174l3.7992 3.2292-12.892 12.738-4.4137-3.0367c-30.877-21.244-67.888 10.212-53.247 45.254 8.0352 19.231 40.022 25.099 56.16 10.302 2.2055-2.0222 2.2055-2.0222 8.7116 4.8456l6.5062 6.8678-2.5994 2.7132c-9.6444 10.067-32.154 15.13-50.824 11.432zm-147.5-54.616v-52h20v104h-20zm293 9.0362v-43.036h-33v-18h43.039 43.039l-0.28894 8.75-0.28893 8.75-32.479 0.54944-0.52144 85.451-19.5 0.57242zm-388.5 2.0549c-14.997-3.735-22.375-18.228-16.119-31.662 10.231-21.972 42.891-15.164 43.007 8.9642 0.0699 14.585-13.492 26.034-26.887 22.698zm14.762-59.477c-11.525-4.633-11.396-4.4017-7.1522-12.892 26.196-52.411 84.996-78.673 142.39-63.598 11.444 3.0058 15.72 4.8611 15.075 6.5405-1.088 2.8353-7.9306 18.848-8.2112 19.215-0.1594 0.20871-4.0191-0.7889-8.577-2.2169-46.605-14.601-96.038 5.4683-118.58 48.143l-4.713 8.9227zm296.24-30.275c-12.765-1.0371-16.5-1.6023-16.5-2.4965 0-0.54917-2.5007-5.9688-5.5571-12.044-14.76-29.336-38.744-56.5-64.657-73.229l-2.7142-1.7523 6.1116-9.1584c3.3614-5.0371 6.2729-9.3486 6.4701-9.581 2.1191-2.4977 36.105 27.034 48.249 41.926 16.734 20.52 38.098 57.822 38.098 66.52 0 0.47413-1.8375 0.43854-9.5-0.18403zm-134.26-6.3334c-6.6201-4.0363-8.9275-11.649-5.6344-18.589 5.6392-11.884 24.993-8.9362 26.949 4.104 1.7694 11.799-11.23 20.633-21.315 14.485zm-40.779-74.479c-42.166-9.1794-58.846-62.461-29.094-92.935 36.732-37.623 99.124-10.903 96.383 41.276-1.8125 34.497-33.693 58.972-67.288 51.659z"/></svg>
